<?xml version="1.0" encoding="UTF-8" standalone="no"?>
<svg xmlns:inkscape="http://www.inkscape.org/namespaces/inkscape" xmlns:sodipodi="http://sodipodi.sourceforge.net/DTD/sodipodi-0.dtd" xmlns="http://www.w3.org/2000/svg" xmlns:svg="http://www.w3.org/2000/svg" height="20" viewBox="0 -960 800 800" width="20" version="1.1" id="svg1" sodipodi:docname="real_estate_object.svg" inkscape:version="1.3 (0e150ed6c4, 2023-07-21)">
  <defs id="defs1"></defs>
  <path d="M 80,-240 V -737.77778 H 222.22222 V -880 h 355.55556 v 284.44445 H 720 V -240 H 435.55555 v -142.22222 h -71.1111 V -240 Z m 71.11111,-71.11111 h 71.11111 v -71.11111 h -71.11111 z m 0,-142.22223 h 71.11111 v -71.11111 h -71.11111 z m 0,-142.22221 h 71.11111 v -71.11111 h -71.11111 z m 142.22223,142.22221 h 71.11111 v -71.11111 h -71.11111 z m 0,-142.22221 h 71.11111 v -71.11111 h -71.11111 z m 0,-142.22223 h 71.11111 v -71.11111 h -71.11111 z m 142.22221,284.44444 h 71.11111 v -71.11111 h -71.11111 z m 0,-142.22221 h 71.11111 v -71.11111 h -71.11111 z m 0,-142.22223 h 71.11111 v -71.11111 h -71.11111 z m 142.22223,426.66667 h 71.11111 v -71.11111 h -71.11111 z m 0,-142.22223 h 71.11111 v -71.11111 h -71.11111 z" id="path1" style="fill:#ffffff;fill-opacity:1;stroke-width:0.888888"></path>
</svg>
